<mxfile host="app.diagrams.net" modified="2023-08-28T13:39:53.556Z" agent="Mozilla/5.0 (Windows NT 10.0; Win64; x64) AppleWebKit/537.36 (KHTML, like Gecko) Chrome/115.0.0.0 Safari/537.36 OPR/101.0.0.0 (Edition Yx 05)" etag="qEwExhOVE9khYGFOlwZn" version="21.6.9" type="device">
  <diagram name="Страница — 1" id="iBxd9OmrGTzxE1lxkZQu">
    <mxGraphModel dx="1320" dy="750" grid="1" gridSize="10" guides="1" tooltips="1" connect="1" arrows="1" fold="1" page="1" pageScale="1" pageWidth="827" pageHeight="1169" math="0" shadow="0">
      <root>
        <mxCell id="0" />
        <mxCell id="1" parent="0" />
        <mxCell id="f531v18-Qi0poUWX89r_-1" value="&lt;div style=&quot;color: rgb(204, 204, 204); background-color: rgb(31, 31, 31); font-family: Consolas, &amp;quot;Courier New&amp;quot;, monospace; font-size: 16px; line-height: 22px;&quot;&gt;Написать программу, которая из имеющегося массива строк формирует новый массив из строк, длина которых меньше, либо равна 3 символам. Первоначальный массив можно ввести с клавиатуры, либо задать на старте выполнения алгоритма.&lt;/div&gt;" style="rounded=0;whiteSpace=wrap;html=1;" vertex="1" parent="1">
          <mxGeometry x="20" y="20" width="340" height="190" as="geometry" />
        </mxCell>
        <mxCell id="f531v18-Qi0poUWX89r_-29" style="edgeStyle=orthogonalEdgeStyle;rounded=0;orthogonalLoop=1;jettySize=auto;html=1;" edge="1" parent="1" source="f531v18-Qi0poUWX89r_-2" target="f531v18-Qi0poUWX89r_-3">
          <mxGeometry relative="1" as="geometry" />
        </mxCell>
        <mxCell id="f531v18-Qi0poUWX89r_-2" value="Начало" style="strokeWidth=2;html=1;shape=mxgraph.flowchart.start_1;whiteSpace=wrap;" vertex="1" parent="1">
          <mxGeometry x="485" y="20" width="100" height="60" as="geometry" />
        </mxCell>
        <mxCell id="f531v18-Qi0poUWX89r_-31" style="edgeStyle=orthogonalEdgeStyle;rounded=0;orthogonalLoop=1;jettySize=auto;html=1;" edge="1" parent="1" source="f531v18-Qi0poUWX89r_-3" target="f531v18-Qi0poUWX89r_-25">
          <mxGeometry relative="1" as="geometry" />
        </mxCell>
        <mxCell id="f531v18-Qi0poUWX89r_-3" value="Пользователь вводит число строк: &lt;br&gt;mas.size" style="shape=parallelogram;html=1;strokeWidth=2;perimeter=parallelogramPerimeter;whiteSpace=wrap;rounded=1;arcSize=12;size=0.23;" vertex="1" parent="1">
          <mxGeometry x="375" y="90" width="300" height="60" as="geometry" />
        </mxCell>
        <mxCell id="f531v18-Qi0poUWX89r_-47" style="edgeStyle=orthogonalEdgeStyle;rounded=0;orthogonalLoop=1;jettySize=auto;html=1;" edge="1" parent="1" source="f531v18-Qi0poUWX89r_-22" target="f531v18-Qi0poUWX89r_-40">
          <mxGeometry relative="1" as="geometry" />
        </mxCell>
        <mxCell id="f531v18-Qi0poUWX89r_-22" value="Задаём начальный&lt;br&gt;размер нового&lt;br&gt;массива:&lt;br&gt;newmas.size=0" style="shape=parallelogram;html=1;strokeWidth=2;perimeter=parallelogramPerimeter;whiteSpace=wrap;rounded=1;arcSize=12;size=0.23;" vertex="1" parent="1">
          <mxGeometry x="150" y="230" width="190" height="90" as="geometry" />
        </mxCell>
        <mxCell id="f531v18-Qi0poUWX89r_-32" style="edgeStyle=orthogonalEdgeStyle;rounded=0;orthogonalLoop=1;jettySize=auto;html=1;" edge="1" parent="1" source="f531v18-Qi0poUWX89r_-25" target="f531v18-Qi0poUWX89r_-27">
          <mxGeometry relative="1" as="geometry" />
        </mxCell>
        <mxCell id="f531v18-Qi0poUWX89r_-25" value="i=0" style="strokeWidth=2;html=1;shape=mxgraph.flowchart.loop_limit;whiteSpace=wrap;" vertex="1" parent="1">
          <mxGeometry x="485" y="165" width="100" height="60" as="geometry" />
        </mxCell>
        <mxCell id="f531v18-Qi0poUWX89r_-38" style="edgeStyle=orthogonalEdgeStyle;rounded=0;orthogonalLoop=1;jettySize=auto;html=1;entryX=1;entryY=0.5;entryDx=0;entryDy=0;" edge="1" parent="1" source="f531v18-Qi0poUWX89r_-26" target="f531v18-Qi0poUWX89r_-22">
          <mxGeometry relative="1" as="geometry">
            <Array as="points">
              <mxPoint x="410" y="450" />
              <mxPoint x="410" y="275" />
            </Array>
          </mxGeometry>
        </mxCell>
        <mxCell id="f531v18-Qi0poUWX89r_-26" value="i &amp;lt; mas.size" style="strokeWidth=2;html=1;shape=mxgraph.flowchart.loop_limit;whiteSpace=wrap;rotation=0;direction=west;" vertex="1" parent="1">
          <mxGeometry x="485" y="420" width="100" height="60" as="geometry" />
        </mxCell>
        <mxCell id="f531v18-Qi0poUWX89r_-36" style="edgeStyle=orthogonalEdgeStyle;rounded=0;orthogonalLoop=1;jettySize=auto;html=1;" edge="1" parent="1" source="f531v18-Qi0poUWX89r_-27" target="f531v18-Qi0poUWX89r_-35">
          <mxGeometry relative="1" as="geometry" />
        </mxCell>
        <mxCell id="f531v18-Qi0poUWX89r_-27" value="Заполняем &lt;br&gt;массив &lt;br&gt;строками:&lt;br&gt;mas[i] = text" style="shape=parallelogram;html=1;strokeWidth=2;perimeter=parallelogramPerimeter;whiteSpace=wrap;rounded=1;arcSize=12;size=0.23;" vertex="1" parent="1">
          <mxGeometry x="465" y="240" width="120" height="75" as="geometry" />
        </mxCell>
        <mxCell id="f531v18-Qi0poUWX89r_-37" style="edgeStyle=orthogonalEdgeStyle;rounded=0;orthogonalLoop=1;jettySize=auto;html=1;" edge="1" parent="1" source="f531v18-Qi0poUWX89r_-35" target="f531v18-Qi0poUWX89r_-26">
          <mxGeometry relative="1" as="geometry" />
        </mxCell>
        <mxCell id="f531v18-Qi0poUWX89r_-35" value="i++" style="rounded=1;whiteSpace=wrap;html=1;absoluteArcSize=1;arcSize=14;strokeWidth=2;" vertex="1" parent="1">
          <mxGeometry x="485" y="350" width="100" height="40" as="geometry" />
        </mxCell>
        <mxCell id="f531v18-Qi0poUWX89r_-50" style="edgeStyle=orthogonalEdgeStyle;rounded=0;orthogonalLoop=1;jettySize=auto;html=1;" edge="1" parent="1" source="f531v18-Qi0poUWX89r_-40" target="f531v18-Qi0poUWX89r_-48">
          <mxGeometry relative="1" as="geometry" />
        </mxCell>
        <mxCell id="f531v18-Qi0poUWX89r_-40" value="i=0" style="strokeWidth=2;html=1;shape=mxgraph.flowchart.loop_limit;whiteSpace=wrap;" vertex="1" parent="1">
          <mxGeometry x="220" y="350" width="100" height="60" as="geometry" />
        </mxCell>
        <mxCell id="f531v18-Qi0poUWX89r_-72" style="edgeStyle=orthogonalEdgeStyle;rounded=0;orthogonalLoop=1;jettySize=auto;html=1;" edge="1" parent="1" source="f531v18-Qi0poUWX89r_-41" target="f531v18-Qi0poUWX89r_-70">
          <mxGeometry relative="1" as="geometry" />
        </mxCell>
        <mxCell id="f531v18-Qi0poUWX89r_-41" value="i &amp;lt; mas.size" style="strokeWidth=2;html=1;shape=mxgraph.flowchart.loop_limit;whiteSpace=wrap;rotation=0;direction=west;" vertex="1" parent="1">
          <mxGeometry x="220" y="670" width="100" height="60" as="geometry" />
        </mxCell>
        <mxCell id="f531v18-Qi0poUWX89r_-44" style="edgeStyle=orthogonalEdgeStyle;rounded=0;orthogonalLoop=1;jettySize=auto;html=1;" edge="1" parent="1" source="f531v18-Qi0poUWX89r_-45" target="f531v18-Qi0poUWX89r_-41">
          <mxGeometry relative="1" as="geometry" />
        </mxCell>
        <mxCell id="f531v18-Qi0poUWX89r_-45" value="i++" style="rounded=1;whiteSpace=wrap;html=1;absoluteArcSize=1;arcSize=14;strokeWidth=2;" vertex="1" parent="1">
          <mxGeometry x="220" y="600" width="100" height="40" as="geometry" />
        </mxCell>
        <mxCell id="f531v18-Qi0poUWX89r_-51" style="edgeStyle=orthogonalEdgeStyle;rounded=0;orthogonalLoop=1;jettySize=auto;html=1;entryX=0.5;entryY=0;entryDx=0;entryDy=0;" edge="1" parent="1" source="f531v18-Qi0poUWX89r_-48" target="f531v18-Qi0poUWX89r_-49">
          <mxGeometry relative="1" as="geometry" />
        </mxCell>
        <mxCell id="f531v18-Qi0poUWX89r_-52" value="Yes" style="edgeLabel;html=1;align=center;verticalAlign=middle;resizable=0;points=[];" vertex="1" connectable="0" parent="f531v18-Qi0poUWX89r_-51">
          <mxGeometry x="0.0727" relative="1" as="geometry">
            <mxPoint x="11" y="-5" as="offset" />
          </mxGeometry>
        </mxCell>
        <mxCell id="f531v18-Qi0poUWX89r_-53" style="edgeStyle=orthogonalEdgeStyle;rounded=0;orthogonalLoop=1;jettySize=auto;html=1;" edge="1" parent="1" source="f531v18-Qi0poUWX89r_-48" target="f531v18-Qi0poUWX89r_-45">
          <mxGeometry relative="1" as="geometry" />
        </mxCell>
        <mxCell id="f531v18-Qi0poUWX89r_-54" value="No" style="edgeLabel;html=1;align=center;verticalAlign=middle;resizable=0;points=[];" vertex="1" connectable="0" parent="f531v18-Qi0poUWX89r_-53">
          <mxGeometry x="-0.2743" y="1" relative="1" as="geometry">
            <mxPoint as="offset" />
          </mxGeometry>
        </mxCell>
        <mxCell id="f531v18-Qi0poUWX89r_-48" value="mas[i]&amp;lt;=3" style="strokeWidth=2;html=1;shape=mxgraph.flowchart.decision;whiteSpace=wrap;" vertex="1" parent="1">
          <mxGeometry x="220" y="440" width="100" height="90" as="geometry" />
        </mxCell>
        <mxCell id="f531v18-Qi0poUWX89r_-55" style="edgeStyle=orthogonalEdgeStyle;rounded=0;orthogonalLoop=1;jettySize=auto;html=1;entryX=1;entryY=0.5;entryDx=0;entryDy=0;" edge="1" parent="1" source="f531v18-Qi0poUWX89r_-49" target="f531v18-Qi0poUWX89r_-45">
          <mxGeometry relative="1" as="geometry">
            <Array as="points">
              <mxPoint x="400" y="620" />
            </Array>
          </mxGeometry>
        </mxCell>
        <mxCell id="f531v18-Qi0poUWX89r_-49" value="newmas.size++" style="rounded=1;whiteSpace=wrap;html=1;absoluteArcSize=1;arcSize=14;strokeWidth=2;" vertex="1" parent="1">
          <mxGeometry x="330" y="520" width="130" height="50" as="geometry" />
        </mxCell>
        <mxCell id="f531v18-Qi0poUWX89r_-60" style="edgeStyle=orthogonalEdgeStyle;rounded=0;orthogonalLoop=1;jettySize=auto;html=1;entryX=0.5;entryY=1;entryDx=0;entryDy=0;" edge="1" parent="1" source="f531v18-Qi0poUWX89r_-56" target="f531v18-Qi0poUWX89r_-58">
          <mxGeometry relative="1" as="geometry" />
        </mxCell>
        <mxCell id="f531v18-Qi0poUWX89r_-63" value="Yes" style="edgeLabel;html=1;align=center;verticalAlign=middle;resizable=0;points=[];" vertex="1" connectable="0" parent="f531v18-Qi0poUWX89r_-60">
          <mxGeometry x="-0.44" relative="1" as="geometry">
            <mxPoint as="offset" />
          </mxGeometry>
        </mxCell>
        <mxCell id="f531v18-Qi0poUWX89r_-74" style="edgeStyle=orthogonalEdgeStyle;rounded=0;orthogonalLoop=1;jettySize=auto;html=1;" edge="1" parent="1" source="f531v18-Qi0poUWX89r_-56" target="f531v18-Qi0poUWX89r_-73">
          <mxGeometry relative="1" as="geometry" />
        </mxCell>
        <mxCell id="f531v18-Qi0poUWX89r_-56" value="Есть ли элементы в &lt;br&gt;mas?" style="strokeWidth=2;html=1;shape=mxgraph.flowchart.decision;whiteSpace=wrap;" vertex="1" parent="1">
          <mxGeometry x="500" y="650" width="100" height="100" as="geometry" />
        </mxCell>
        <mxCell id="f531v18-Qi0poUWX89r_-62" style="edgeStyle=orthogonalEdgeStyle;rounded=0;orthogonalLoop=1;jettySize=auto;html=1;" edge="1" parent="1" source="f531v18-Qi0poUWX89r_-58" target="f531v18-Qi0poUWX89r_-61">
          <mxGeometry relative="1" as="geometry" />
        </mxCell>
        <mxCell id="f531v18-Qi0poUWX89r_-58" value="Элемент mas - локальная переменная t" style="rounded=1;whiteSpace=wrap;html=1;absoluteArcSize=1;arcSize=14;strokeWidth=2;" vertex="1" parent="1">
          <mxGeometry x="500" y="560" width="100" height="50" as="geometry" />
        </mxCell>
        <mxCell id="f531v18-Qi0poUWX89r_-65" style="edgeStyle=orthogonalEdgeStyle;rounded=0;orthogonalLoop=1;jettySize=auto;html=1;entryX=0.5;entryY=0;entryDx=0;entryDy=0;" edge="1" parent="1" source="f531v18-Qi0poUWX89r_-61" target="f531v18-Qi0poUWX89r_-64">
          <mxGeometry relative="1" as="geometry">
            <Array as="points">
              <mxPoint x="760" y="585" />
            </Array>
          </mxGeometry>
        </mxCell>
        <mxCell id="f531v18-Qi0poUWX89r_-66" value="Yes" style="edgeLabel;html=1;align=center;verticalAlign=middle;resizable=0;points=[];" vertex="1" connectable="0" parent="f531v18-Qi0poUWX89r_-65">
          <mxGeometry x="-0.4118" y="1" relative="1" as="geometry">
            <mxPoint as="offset" />
          </mxGeometry>
        </mxCell>
        <mxCell id="f531v18-Qi0poUWX89r_-68" style="edgeStyle=orthogonalEdgeStyle;rounded=0;orthogonalLoop=1;jettySize=auto;html=1;" edge="1" parent="1" source="f531v18-Qi0poUWX89r_-61">
          <mxGeometry relative="1" as="geometry">
            <mxPoint x="670" y="700" as="targetPoint" />
          </mxGeometry>
        </mxCell>
        <mxCell id="f531v18-Qi0poUWX89r_-69" value="No" style="edgeLabel;html=1;align=center;verticalAlign=middle;resizable=0;points=[];" vertex="1" connectable="0" parent="f531v18-Qi0poUWX89r_-68">
          <mxGeometry x="-0.5205" relative="1" as="geometry">
            <mxPoint as="offset" />
          </mxGeometry>
        </mxCell>
        <mxCell id="f531v18-Qi0poUWX89r_-61" value="Длина t &amp;lt;=3" style="strokeWidth=2;html=1;shape=mxgraph.flowchart.decision;whiteSpace=wrap;" vertex="1" parent="1">
          <mxGeometry x="620" y="552.5" width="100" height="65" as="geometry" />
        </mxCell>
        <mxCell id="f531v18-Qi0poUWX89r_-67" style="edgeStyle=orthogonalEdgeStyle;rounded=0;orthogonalLoop=1;jettySize=auto;html=1;" edge="1" parent="1" source="f531v18-Qi0poUWX89r_-64" target="f531v18-Qi0poUWX89r_-56">
          <mxGeometry relative="1" as="geometry" />
        </mxCell>
        <mxCell id="f531v18-Qi0poUWX89r_-64" value="newmas[i] = t;&lt;br&gt;i++;" style="rounded=1;whiteSpace=wrap;html=1;absoluteArcSize=1;arcSize=14;strokeWidth=2;" vertex="1" parent="1">
          <mxGeometry x="710" y="657.5" width="100" height="85" as="geometry" />
        </mxCell>
        <mxCell id="f531v18-Qi0poUWX89r_-71" style="edgeStyle=orthogonalEdgeStyle;rounded=0;orthogonalLoop=1;jettySize=auto;html=1;entryX=0;entryY=0.5;entryDx=0;entryDy=0;entryPerimeter=0;" edge="1" parent="1" source="f531v18-Qi0poUWX89r_-70" target="f531v18-Qi0poUWX89r_-56">
          <mxGeometry relative="1" as="geometry" />
        </mxCell>
        <mxCell id="f531v18-Qi0poUWX89r_-70" value="Определяем счётчик:&lt;br&gt;i = 0" style="rounded=1;whiteSpace=wrap;html=1;absoluteArcSize=1;arcSize=14;strokeWidth=2;" vertex="1" parent="1">
          <mxGeometry x="350" y="670" width="100" height="62" as="geometry" />
        </mxCell>
        <mxCell id="f531v18-Qi0poUWX89r_-73" value="Выводим:&lt;br&gt;mas - начальный массив&lt;br&gt;newmas - преобразованный массив" style="strokeWidth=2;html=1;shape=mxgraph.flowchart.start_1;whiteSpace=wrap;" vertex="1" parent="1">
          <mxGeometry x="425" y="790" width="250" height="140" as="geometry" />
        </mxCell>
      </root>
    </mxGraphModel>
  </diagram>
</mxfile>
